<?xml version="1.0" encoding="utf-8"?>
<!-- Generator: Adobe Illustrator 16.0.0, SVG Export Plug-In . SVG Version: 6.00 Build 0)  -->
<!DOCTYPE svg PUBLIC "-//W3C//DTD SVG 1.1//EN" "http://www.w3.org/Graphics/SVG/1.1/DTD/svg11.dtd">
<svg version="1.1" id="Layer_1" xmlns="http://www.w3.org/2000/svg" xmlns:xlink="http://www.w3.org/1999/xlink" x="0px" y="0px"
	 width="177.571px" height="219.482px" viewBox="-23.5 0 177.571 219.482" enable-background="new -23.5 0 177.571 219.482"
	 xml:space="preserve">
<rect fill="none" width="120" height="120"/>
<g>
	<circle fill="#FFF6E6" cx="60" cy="60" r="126">
	
		<animate  restart="always" calcMode="linear" additive="replace" accumulate="none" dur="1s" repeatCount="indefinite" to="75" from="105" attributeName="r" fill="remove">
		</animate>
	</circle>
	<circle fill="#FF0000" cx="60" cy="60" r="108">
	
		<animate  restart="always" calcMode="linear" additive="replace" accumulate="none" dur="1s" repeatCount="indefinite" to="60" from="90" attributeName="r" fill="remove">
		</animate>
	</circle>
	<circle fill="#FFF6E6" cx="60" cy="60" r="90">
	
		<animate  restart="always" calcMode="linear" additive="replace" accumulate="none" dur="1s" repeatCount="indefinite" to="45" from="75" attributeName="r" fill="remove">
		</animate>
	</circle>
	<circle fill="#FF0000" cx="60" cy="60" r="72">
	
		<animate  restart="always" calcMode="linear" additive="replace" accumulate="none" dur="1s" repeatCount="indefinite" to="30" from="60" attributeName="r" fill="remove">
		</animate>
	</circle>
	<circle fill="#FFF6E6" cx="60" cy="60" r="54">
	
		<animate  restart="always" calcMode="linear" additive="replace" accumulate="none" dur="1s" repeatCount="indefinite" to="15" from="45" attributeName="r" fill="remove">
		</animate>
	</circle>
	<circle fill="#FF0000" cx="60" cy="60" r="36">
	
		<animate  restart="always" calcMode="linear" additive="replace" accumulate="none" dur="1s" repeatCount="indefinite" to="0" from="30" attributeName="r" fill="remove">
		</animate>
	</circle>
	<circle fill="#FFF6E6" cx="60" cy="60" r="18">
	
		<animate  restart="always" calcMode="linear" additive="replace" accumulate="none" dur="1s" repeatCount="indefinite" to="0" from="15" attributeName="r" fill="remove">
		</animate>
	</circle>
</g>
<path fill-rule="evenodd" clip-rule="evenodd" fill="#FFFFFF" d="M-23.5,0v190.678h177.571V0H-23.5z M68.736,108.959
	c-19.004,0-34.411-17.35-34.411-38.753c0-21.402,15.407-38.752,34.411-38.752c19.006,0,34.412,17.35,34.412,38.752
	C103.148,91.609,87.742,108.959,68.736,108.959z"/>
<g>
	<path fill-rule="evenodd" clip-rule="evenodd" fill="#1088C9" d="M26.905,214.623c3.106-1.065,6.428-0.984,9.262-2.528
		c3.63-1.984,6.093-4.752,6.194-9.233c0.074-3.251-1.374-5.448-3.874-7.267c-2.642-1.924-5.66-3.098-8.53-4.558
		c-3.888-1.975-7.667-4.121-11.061-6.862c-4.407-3.562-6.971-8.267-7.875-13.827c-0.253-1.562-0.136-3.181,0.208-4.8
		c0.555-2.577,1.24-5.038,2.67-7.328c1.537-2.46,3.225-4.719,5.483-6.561c3.521-2.871,7.417-5.161,11.252-7.569
		c4.653-2.924,9.529-5.406,14.351-8.016c2.748-1.482,5.236-3.464,6.617-6.464c0.574-1.248,0.418-2.633,0.691-3.943
		c0.13-0.642-0.578-0.837-1.104-0.611c-0.641,0.276-1.192,0.722-1.641,1.294c-3.139,3.986-7.086,6.944-11.642,9.154
		c-2.166,1.053-4.374,1.867-6.736,2.431c-2.261,0.539-4.595,1.064-6.631,2.338c-0.851,0.528-1.785,0.649-2.776,0.639
		c-4.194-0.045-8.389-0.309-12.379-1.617c-3.605-1.183-7.087-2.714-10.494-4.447c-3.805-1.938-7.252-4.285-10.178-7.37
		c-2.794-2.951-4.852-6.334-6.191-10.219c-0.565-1.64-0.84-3.354-1.498-4.957c-0.14-0.35-0.187-0.752-0.203-1.131
		c-0.119-3.395-0.49-6.814,0.036-10.181c0.45-2.853,1.489-5.563,2.846-8.148c2.264-4.301,5.559-7.787,8.802-11.312
		c2.998-3.258,6.109-6.416,9.089-9.693c1.99-2.188,2.972-2.416,5.615-0.646c1.887,1.264,3.44,1.555,5.501,0.675
		c2.287-0.979,4.154-0.102,5.17,2.218c0.776,1.766,1.877,2.839,3.958,2.585c1.75-0.213,2.598,0.972,3.426,2.269
		c0.698,1.09,0.757,2.383,1.341,3.526c0.793,1.556,1.739,2.97,2.903,4.233c0.578,0.633,0.874,1.251,0.748,2.07
		c-0.127,0.826-0.223,1.663-0.431,2.467c-0.742,2.912-1.46,5.836-2.318,8.716c-0.574,1.924-1.696,3.604-3.345,4.763
		c-1.61,1.134-3.103,2.464-4.914,3.287c-0.427,0.196-0.753,0.909-1.484,0.261c-0.659-0.581-0.861-1.347-0.506-1.866
		c0.637-0.94,0.759-2.024,1.125-3.015c2.358-6.399-0.183-12.57-6.543-15.377c-3.269-0.344-6.481-0.662-9.266,1.782
		c-2.736,2.404-4.727,5.288-6.405,8.492c-1.63,3.119-1.833,6.391-1.423,9.694c0.29,2.333,1.45,4.459,2.7,6.475
		c1.855,2.994,4.313,5.365,7.363,7.114c1.928,1.111,4.029,1.758,6.228,1.87c5.155,0.266,10.316,0.051,15.393-0.854
		c5.058-0.901,9.728-2.792,13.239-6.775c1.648-1.871,2.916-3.928,3.541-6.457c0.412-1.656,0.585-3.261,0.622-4.93
		c0.075-3.436-1.097-6.492-2.874-9.34c-2.185-3.507-5.113-6.41-7.868-9.447c-3.416-3.757-6.023-7.975-7.928-12.707
		c-0.856-2.128-1.495-4.327-2.014-6.492c-0.437-1.824-0.982-3.719-0.986-5.654c-0.005-1.873,0.085-3.751-0.067-5.61
		c-0.235-2.88,0.494-5.651,0.991-8.405c0.429-2.388,1.332-4.732,2.271-7.015c1.837-4.469,4.463-8.423,7.645-12.028
		c3.245-3.674,7.086-6.609,11.311-9.07c3.682-2.144,7.612-3.778,11.714-4.788c2.121-0.522,4.284-1.301,6.588-1.076
		c1.207,0.116,2.474-0.333,3.633-0.253c3.566,0.237,7.163-0.027,10.706,0.892c2.167,0.563,4.33,1.129,6.465,1.783
		c0.429,0.13,0.854,0.288,1.26,0.469c3.025,1.368,6.07,2.776,8.722,4.741c3.589,2.65,7.03,5.511,9.71,9.212
		c1.729,2.388,3.462,4.755,4.761,7.402c1.201,2.448,2.262,4.945,3.035,7.598c0.446,1.527,0.428,3.166,1.177,4.624
		c0.248,0.478,0.199,1.131,0.217,1.706c0.119,3.869,0.268,7.75-0.053,11.602c-0.218,2.643-0.916,5.251-1.812,7.781
		c-1.021,2.891-2.238,5.68-3.89,8.285c-1.443,2.272-2.911,4.535-4.726,6.515c-2.352,2.564-4.605,5.172-6.009,8.397
		c-0.58,1.331-0.946,2.735-1.4,4.104c-0.765,2.284-0.586,4.569-0.646,6.865c-0.059,2.214,0.679,4.249,1.303,6.333
		c1.333,4.453,4.016,7.975,7.367,11.031c2.419,2.205,5.285,3.62,8.338,4.836c3.33,1.328,6.697,1.702,10.152,1.44
		c6.749-0.513,11.756-3.692,14.758-9.915c0.824-1.715,1.233-3.503,1.602-5.307c0.394-1.926,0.188-3.855-0.715-5.646
		c-0.641-1.261-1.193-2.591-2.036-3.705c-0.893-1.187-1.306-2.367-1.319-3.851c-0.018-1.633-1.022-2.821-2.337-3.739
		c-2.066-1.442-3.944-3.116-5.445-5.128c-1.403-1.877-2.647-3.867-3.521-6.084c-1.025-2.599-2.835-4.696-4.711-6.723
		c-1.136-1.227-2.113-2.545-2.821-4.093c-0.648-1.427-0.876-2.68,0.064-4.129c1.422-2.185,1.709-4.633,1.184-7.196
		c-0.473-2.317-0.039-3.497,1.93-4.494c1.891-0.957,2.54-2.547,2.49-4.402c-0.051-2.095,0.651-3.743,2.101-5.161
		c1.138-1.118,1.921-2.539,3.276-3.497c0.679-0.48,1.117-1.368,1.391-2.262c0.648-2.11,2.545-3.591,4.981-3.305
		c2.081,0.241,4.078-0.066,5.848-1.311c0.151-0.107,0.35-0.191,0.533-0.204c2.962-0.238,5.895-0.349,8.479,1.546
		c1.643,1.205,1.791,2.776,0.323,4.187c-0.278,0.268-0.588,0.504-0.902,0.724c-4.043,2.87-7.328,6.433-9.343,10.975
		c-0.953,2.143-1.834,4.376-2.016,6.798c-0.101,1.337-0.716,2.602-0.675,3.984c0.107,3.753,0.785,7.354,2.19,10.878
		c1.336,3.356,3.47,6.186,5.362,9.189c0.678,1.071,1.359,2.141,2.051,3.209c1.695,2.632,3.361,5.29,5.11,7.887
		c1.611,2.396,2.787,5.008,3.655,7.727c1.114,3.486,1.872,7.104,1.611,10.78c-0.152,2.198-0.616,4.385-1.214,6.547
		c-0.612,2.229-1.398,4.352-2.562,6.329c-1.299,2.198-2.685,4.317-4.565,6.109c-2.278,2.179-4.702,4.141-7.43,5.695
		c-2.269,1.292-4.679,2.282-7.19,3.061c-2.179,0.678-4.352,1.281-6.614,1.652c-0.936,0.155-1.977,0.482-2.876,0.937
		c-1.617,0.826-3.246,0.856-5.03,0.725c-2.376-0.183-4.739-0.527-6.996-1.126c-2.453-0.65-5.254-0.627-7.151-2.802
		c-0.384-0.438-0.97-0.604-1.583-0.59c-3.534,0.093-6.27-1.506-8.635-3.98c-1.68-1.759-3.469-3.421-5.176-5.155
		c-0.736-0.746-1.622-1.27-2.491-1.803c-0.791-0.485-1.144-0.243-1.188,0.723c-0.017,0.389-0.037,0.794,0.062,1.156
		c1.006,3.721,2.381,7.192,5.412,9.857c2.062,1.816,4.174,3.554,6.397,5.147c2.814,2.018,5.475,4.209,8.084,6.489
		c3.237,2.826,6.426,5.69,9.388,8.815c2.905,3.063,5.151,6.539,6.733,10.426c0.952,2.333,1.086,4.812,1.114,7.336
		c0.081,7.178-3.433,12.316-8.883,16.498c-2.569,1.967-5.46,3.324-8.478,4.261c-1.719,0.538-3.517,1.215-5.448,1.028
		c-1.082-0.1-2.172-0.004-3.207,0.499c-0.435,0.211-1.005,0.176-1.517,0.19c-1.61,0.045-3.228-0.015-4.834,0.106
		c-1.864,0.137-3.476-0.324-5.024-1.384c-1.409-0.968-2.825-1.138-4.667-0.513c-2.121,0.707-4.541,0.738-6.523-1.022
		c-1.632-1.449-3.403-2.743-4.708-4.523c-0.227-0.314-0.431-0.628-0.801-0.811c-2.118-1.029-2.423-3.208-3.269-5.078
		c-0.722-1.589-0.734-3.316-1.298-4.948c-0.548-1.593-0.679-3.454-0.483-5.139c0.24-2.061,0.309-4.105,0.283-6.162
		c-0.01-0.927,0.083-1.793,0.586-2.591c1.733-2.757,3.372-5.621,6.587-6.956c1.471-0.614,2.956-1.209,4.615-1.162
		c1.674,0.039,3.354-0.019,5.031-0.048c0.513-0.012,1.155,0.116,1.517-0.14c1.519-1.075,2.88-0.083,4.162,0.362
		c1.381,0.474,2.434,1.633,3.175,2.949c0.841,1.487-0.021,3.189-1.743,3.412c-1.022,0.13-2.059,0.042-3.078-0.175
		c-1.505-0.313-2.914-0.063-4.261,0.704c-1.554,0.883-2.134,2.252-2.31,3.969c-0.793,7.773,4.962,13.407,10.433,15.398
		c3.688,1.343,7.592,1.646,11.343,0.141c3.257-1.305,5.522-3.743,6.438-7.161c0.262-0.969,0.87-1.826,0.826-2.926
		c-0.102-2.495-0.757-4.811-2.167-6.836c-2.518-3.608-5.819-6.414-9.342-9.026c-1.853-1.37-3.669-2.785-5.6-4.044
		c-1.977-1.294-3.93-2.617-5.909-3.898c-4.465-2.889-8.283-6.407-11.098-10.976c-1.008-1.635-2.227-3.137-3.368-4.682
		c-0.401-0.544-0.811-0.696-1.406-0.101c-1.179,1.188-2.333,2.412-3.184,3.837c-2.088,3.472-5.164,5.811-8.594,7.764
		c-2.479,1.412-5.099,2.591-7.466,4.2c-2.433,1.655-5.239,2.249-7.994,3.042c-3.722,1.067-6.955,2.857-9.06,6.303
		c-2.229,3.656-1.618,6.72,0.911,9.94c0.665,0.849,1.461,1.646,2.349,2.252c1.607,1.093,3.34,1.893,5.409,1.7
		c1.472-0.135,2.965-0.055,4.448-0.08c0.644-0.007,1.257-0.069,1.884-0.312c1.673-0.642,2.535-0.367,3.676,1.069
		c0.641,0.806,1.224,1.64,1.702,2.561c0.482,0.929,1.15,1.526,2.295,1.812c2.219,0.548,3.725,1.897,4.258,4.341
		c0.336,1.53,1.167,2.959,1.699,4.468c0.493,1.401,0.617,2.792,0.449,4.176c-0.241,1.968-0.574,3.932-1.137,5.851
		c-0.415,1.409-0.815,2.832-1.065,4.278c-0.401,2.301-2.462,4.564-4.806,5.037c-0.878,0.181-1.496,0.72-2.058,1.338
		c-2.394,2.657-5.438,3.986-8.931,4.435c-1.334,0.17-2.584,0.666-3.956,0.791c-3.278,0.291-5.882-1.127-8.351-2.932
		C27.952,216.064,27.053,215.734,26.905,214.623z M60.464,38.682c-12.613-0.466-22.467,10.645-22.415,21.857
		c0.055,11.967,9.69,22.129,22.283,22.138c12.261,0.004,22.078-9.866,22.228-21.929C82.711,48.84,72.312,38.321,60.464,38.682z"/>
</g>
</svg>
