<svg xmlns="http://www.w3.org/2000/svg" width="177.571" height="219.482" viewBox="-23.5 0 177.571 219.482" enable-background="new -23.5 0 177.571 219.482"><path fill="none" d="M0 0h120v120H0z"/><circle fill="#FFF6E6" cx="60" cy="60" r="126"><animate restart="always" calcMode="linear" additive="replace" accumulate="none" dur="1s" repeatCount="indefinite" to="75" from="105" attributeName="r" fill="remove"/></circle><circle fill="#f00" cx="60" cy="60" r="108"><animate restart="always" calcMode="linear" additive="replace" accumulate="none" dur="1s" repeatCount="indefinite" to="60" from="90" attributeName="r" fill="remove"/></circle><circle fill="#FFF6E6" cx="60" cy="60" r="90"><animate restart="always" calcMode="linear" additive="replace" accumulate="none" dur="1s" repeatCount="indefinite" to="45" from="75" attributeName="r" fill="remove"/></circle><circle fill="#f00" cx="60" cy="60" r="72"><animate restart="always" calcMode="linear" additive="replace" accumulate="none" dur="1s" repeatCount="indefinite" to="30" from="60" attributeName="r" fill="remove"/></circle><circle fill="#FFF6E6" cx="60" cy="60" r="54"><animate restart="always" calcMode="linear" additive="replace" accumulate="none" dur="1s" repeatCount="indefinite" to="15" from="45" attributeName="r" fill="remove"/></circle><circle fill="#f00" cx="60" cy="60" r="36"><animate restart="always" calcMode="linear" additive="replace" accumulate="none" dur="1s" repeatCount="indefinite" to="0" from="30" attributeName="r" fill="remove"/></circle><circle fill="#FFF6E6" cx="60" cy="60" r="18"><animate restart="always" calcMode="linear" additive="replace" accumulate="none" dur="1s" repeatCount="indefinite" to="0" from="15" attributeName="r" fill="remove"/></circle><path fill-rule="evenodd" clip-rule="evenodd" fill="#fff" d="M-24 -1v192h179V-1H-24zm82.771 29.76a30.69 30.69 0 0 1 30.689 30.691 30.69 30.69 0 0 1 -30.689 30.69 30.69 30.69 0 0 1 -30.691 -30.69 30.69 30.69 0 0 1 30.691 -30.691z"/><path fill-rule="evenodd" clip-rule="evenodd" fill="#1088C9" d="M26.905 214.623c3.106-1.065 6.428-.984 9.262-2.528 3.63-1.984 6.093-4.752 6.194-9.233.075-3.25-1.373-5.448-3.873-7.267-2.642-1.924-5.66-3.098-8.53-4.558-3.888-1.975-7.667-4.12-11.06-6.862-4.408-3.562-6.972-8.267-7.876-13.827-.252-1.562-.135-3.18.21-4.8.554-2.577 1.24-5.038 2.67-7.328 1.536-2.46 3.224-4.72 5.482-6.56 3.52-2.872 7.417-5.162 11.252-7.57 4.653-2.924 9.53-5.406 14.35-8.016 2.75-1.482 5.237-3.464 6.618-6.464.574-1.248.418-2.633.69-3.943.13-.642-.577-.837-1.103-.61-.642.275-1.193.72-1.642 1.293-3.14 3.986-7.086 6.944-11.642 9.154-2.166 1.053-4.374 1.867-6.736 2.43-2.26.54-4.595 1.065-6.63 2.34-.852.527-1.786.648-2.777.638-4.194-.045-8.39-.31-12.38-1.617-3.604-1.183-7.086-2.714-10.493-4.447-3.805-1.938-7.252-4.285-10.178-7.37-2.794-2.95-4.852-6.334-6.19-10.22-.566-1.64-.84-3.353-1.5-4.956-.14-.35-.186-.752-.202-1.13-.12-3.396-.49-6.815.036-10.182.45-2.853 1.49-5.563 2.846-8.148 2.264-4.3 5.56-7.787 8.802-11.312 2.998-3.258 6.11-6.416 9.09-9.693 1.99-2.188 2.97-2.416 5.614-.646 1.887 1.265 3.44 1.556 5.5.676 2.288-.98 4.155-.102 5.17 2.218.777 1.766 1.878 2.84 3.96 2.585 1.75-.214 2.597.97 3.425 2.268.698 1.09.757 2.383 1.34 3.526.794 1.556 1.74 2.97 2.904 4.233.578.633.874 1.25.748 2.07-.127.826-.223 1.663-.43 2.467-.743 2.912-1.46 5.836-2.32 8.716-.573 1.924-1.695 3.604-3.344 4.763-1.61 1.134-3.102 2.464-4.913 3.287-.427.196-.753.91-1.484.26-.66-.58-.86-1.346-.506-1.865.637-.94.76-2.024 1.125-3.015 2.358-6.4-.183-12.57-6.543-15.377-3.27-.344-6.482-.662-9.267 1.782-2.736 2.404-4.727 5.288-6.405 8.492-1.63 3.12-1.833 6.39-1.423 9.694.29 2.334 1.45 4.46 2.7 6.476 1.855 2.994 4.313 5.365 7.363 7.114 1.928 1.11 4.03 1.758 6.228 1.87 5.155.266 10.316.05 15.393-.854 5.057-.9 9.727-2.792 13.238-6.775 1.648-1.87 2.916-3.927 3.54-6.456.413-1.656.586-3.26.623-4.93.076-3.436-1.096-6.492-2.873-9.34-2.185-3.507-5.113-6.41-7.868-9.447-3.417-3.757-6.024-7.975-7.93-12.707-.855-2.128-1.494-4.327-2.013-6.492-.437-1.824-.982-3.72-.986-5.654-.004-1.873.086-3.75-.066-5.61-.235-2.88.494-5.65.99-8.405.43-2.39 1.333-4.733 2.272-7.016 1.837-4.47 4.463-8.423 7.645-12.028 3.246-3.674 7.087-6.61 11.312-9.07 3.682-2.144 7.612-3.778 11.714-4.788 2.12-.522 4.284-1.3 6.588-1.076 1.207.116 2.474-.333 3.633-.253 3.566.236 7.163-.028 10.706.89 2.167.564 4.33 1.13 6.465 1.784.43.13.854.288 1.26.47 3.025 1.367 6.07 2.775 8.722 4.74 3.59 2.65 7.03 5.51 9.71 9.212 1.73 2.388 3.462 4.755 4.76 7.402 1.202 2.448 2.263 4.945 3.036 7.598.446 1.527.428 3.166 1.177 4.624.248.478.2 1.13.217 1.706.12 3.87.268 7.75-.053 11.602-.218 2.643-.916 5.25-1.812 7.78-1.02 2.892-2.238 5.68-3.89 8.286-1.443 2.272-2.91 4.535-4.726 6.515-2.353 2.563-4.606 5.17-6.01 8.396-.58 1.33-.946 2.735-1.4 4.104-.765 2.284-.586 4.57-.646 6.865-.06 2.214.68 4.25 1.303 6.333 1.333 4.453 4.016 7.975 7.367 11.03 2.42 2.206 5.285 3.62 8.338 4.837 3.33 1.328 6.697 1.702 10.152 1.44 6.75-.513 11.756-3.692 14.758-9.915.824-1.715 1.233-3.503 1.602-5.307.394-1.926.188-3.855-.715-5.646-.642-1.26-1.194-2.59-2.037-3.705-.893-1.187-1.306-2.367-1.32-3.85-.017-1.634-1.02-2.822-2.336-3.74-2.066-1.442-3.944-3.116-5.445-5.128-1.403-1.877-2.647-3.867-3.52-6.084-1.026-2.6-2.836-4.696-4.712-6.723-1.136-1.227-2.113-2.545-2.82-4.093-.65-1.427-.877-2.68.063-4.13 1.422-2.184 1.71-4.632 1.184-7.195-.473-2.318-.04-3.498 1.93-4.495 1.89-.957 2.54-2.547 2.49-4.402-.05-2.095.65-3.743 2.1-5.16 1.14-1.12 1.922-2.54 3.277-3.498.68-.48 1.117-1.368 1.39-2.262.65-2.11 2.546-3.59 4.982-3.305 2.08.24 4.078-.066 5.848-1.31.15-.108.35-.192.533-.205 2.962-.238 5.895-.35 8.48 1.546 1.642 1.204 1.79 2.775.322 4.186-.28.268-.59.504-.903.724-4.043 2.87-7.328 6.433-9.343 10.975-.953 2.143-1.834 4.376-2.016 6.798-.1 1.337-.716 2.602-.675 3.984.107 3.753.785 7.354 2.19 10.878 1.336 3.356 3.47 6.186 5.362 9.19.678 1.07 1.36 2.14 2.05 3.208 1.696 2.632 3.362 5.29 5.11 7.887 1.612 2.396 2.788 5.008 3.656 7.727 1.115 3.486 1.873 7.104 1.612 10.78-.152 2.198-.616 4.385-1.214 6.547-.612 2.23-1.398 4.352-2.562 6.33-1.3 2.197-2.685 4.316-4.565 6.108-2.277 2.18-4.7 4.14-7.43 5.695-2.268 1.292-4.678 2.282-7.19 3.06-2.178.68-4.35 1.282-6.613 1.653-.936.155-1.977.482-2.876.937-1.616.826-3.245.856-5.03.725-2.375-.183-4.738-.527-6.995-1.126-2.453-.65-5.254-.627-7.15-2.802-.385-.438-.97-.604-1.584-.59-3.533.093-6.27-1.506-8.634-3.98-1.68-1.76-3.47-3.42-5.176-5.155-.736-.747-1.622-1.27-2.49-1.804-.792-.485-1.145-.243-1.19.723-.016.388-.036.793.063 1.155 1.006 3.72 2.38 7.192 5.412 9.857 2.062 1.816 4.174 3.554 6.397 5.147 2.814 2.017 5.475 4.208 8.084 6.488 3.237 2.826 6.426 5.69 9.388 8.815 2.905 3.063 5.15 6.54 6.733 10.426.952 2.332 1.086 4.81 1.114 7.335.082 7.178-3.432 12.316-8.882 16.498-2.57 1.967-5.46 3.324-8.478 4.26-1.72.54-3.517 1.216-5.448 1.03-1.082-.1-2.172-.005-3.207.498-.435.212-1.005.177-1.517.19-1.61.046-3.228-.014-4.834.107-1.864.137-3.476-.324-5.024-1.384-1.41-.968-2.825-1.138-4.667-.513-2.12.707-4.54.738-6.523-1.022-1.632-1.45-3.403-2.743-4.708-4.523-.227-.314-.43-.628-.8-.81-2.12-1.03-2.424-3.21-3.27-5.08-.722-1.588-.734-3.315-1.298-4.947-.548-1.593-.68-3.454-.483-5.14.24-2.06.31-4.104.284-6.16-.01-.928.083-1.794.586-2.592 1.733-2.757 3.372-5.62 6.587-6.956 1.47-.614 2.956-1.21 4.615-1.162 1.674.04 3.354-.02 5.03-.048.514-.012 1.156.116 1.518-.14 1.52-1.075 2.88-.083 4.162.362 1.38.474 2.434 1.633 3.175 2.95.84 1.486-.02 3.188-1.743 3.41-1.022.13-2.06.043-3.078-.174-1.505-.313-2.914-.063-4.26.704-1.555.883-2.135 2.252-2.31 3.97-.794 7.772 4.96 13.406 10.432 15.397 3.688 1.342 7.592 1.645 11.343.14 3.258-1.305 5.523-3.743 6.44-7.16.26-.97.87-1.827.825-2.927-.102-2.495-.757-4.81-2.167-6.836-2.518-3.608-5.82-6.414-9.342-9.026-1.853-1.37-3.67-2.784-5.6-4.043-1.977-1.294-3.93-2.617-5.91-3.898-4.464-2.89-8.282-6.408-11.097-10.977-1.01-1.635-2.228-3.137-3.37-4.682-.4-.543-.81-.695-1.405-.1-1.18 1.188-2.333 2.412-3.184 3.837-2.087 3.472-5.163 5.81-8.593 7.764-2.48 1.413-5.1 2.592-7.466 4.2-2.432 1.656-5.238 2.25-7.993 3.043-3.722 1.067-6.955 2.857-9.06 6.303-2.23 3.656-1.618 6.72.91 9.94.666.85 1.462 1.646 2.35 2.252 1.607 1.093 3.34 1.893 5.41 1.7 1.47-.135 2.964-.055 4.447-.08.644-.007 1.257-.07 1.884-.312 1.673-.642 2.535-.367 3.676 1.07.64.805 1.224 1.64 1.702 2.56.482.93 1.15 1.526 2.295 1.812 2.22.548 3.726 1.897 4.26 4.34.335 1.53 1.166 2.96 1.698 4.47.493 1.4.617 2.79.45 4.175-.242 1.968-.575 3.932-1.138 5.85-.415 1.41-.815 2.833-1.065 4.28-.4 2.3-2.462 4.563-4.806 5.036-.88.18-1.497.72-2.06 1.337-2.393 2.657-5.437 3.986-8.93 4.435-1.334.17-2.584.666-3.956.79-3.278.292-5.882-1.126-8.35-2.93-.612-.448-1.51-.778-1.66-1.89zm33.56-175.94c-12.614-.467-22.468 10.644-22.416 21.856.054 11.966 9.69 22.128 22.282 22.137 12.26.004 22.078-9.866 22.228-21.93.15-11.907-10.248-22.426-22.096-22.065z"/></svg>
